<?xml version="1.0" standalone="no"?>
<!DOCTYPE svg PUBLIC "-//W3C//DTD SVG 20010904//EN"
 "http://www.w3.org/TR/2001/REC-SVG-20010904/DTD/svg10.dtd">
<svg version="1.0" xmlns="http://www.w3.org/2000/svg"
 width="250.000000pt" height="250.000000pt" viewBox="0 0 250.000000 250.000000"
 preserveAspectRatio="xMidYMid meet">

<g transform="translate(0.000000,250.000000) scale(0.100000,-0.100000)"
fill="#000000" stroke="none">
<path d="M1010 2391 c-237 -52 -443 -164 -606 -329 -171 -173 -289 -398 -329
-630 -19 -109 -19 -316 0 -424 28 -162 115 -365 211 -494 59 -79 175 -195 253
-254 135 -101 330 -186 500 -215 107 -19 315 -19 422 0 485 85 873 471 965
963 12 67 15 125 11 252 -5 198 -30 306 -107 467 -122 256 -301 438 -555 563
-182 90 -278 112 -500 116 -148 3 -195 0 -265 -15z m-394 -665 c28 -13 63 -39
77 -57 26 -34 26 -34 7 -49 -11 -8 -40 -25 -64 -38 l-44 -24 -25 26 c-38 38
-87 36 -122 -6 -24 -28 -27 -39 -22 -82 5 -59 32 -86 85 -86 25 0 44 8 63 26
l27 26 61 -34 c33 -18 61 -36 61 -40 0 -5 -16 -26 -36 -47 -90 -101 -268 -100
-359 1 -48 53 -65 95 -65 163 0 185 186 300 356 221z m294 -66 l0 -80 70 0 70
0 0 80 0 80 80 0 80 0 -2 -232 -3 -233 -77 -3 -78 -3 0 86 0 85 -70 0 -69 0
-3 -82 -3 -83 -77 -3 -78 -3 0 236 0 235 80 0 80 0 0 -80z m1012 -61 c113 -24
207 -88 250 -173 39 -77 48 -155 48 -453 l0 -283 -190 0 -190 0 0 45 0 45 -52
-40 c-69 -53 -141 -74 -232 -68 -172 11 -265 100 -274 263 -4 68 -1 89 18 133
54 126 207 187 407 163 49 -6 98 -14 111 -17 18 -5 22 -2 22 18 0 43 -41 91
-90 106 -58 17 -173 10 -260 -17 -35 -11 -66 -18 -69 -15 -3 3 -20 59 -37 124
l-31 119 36 14 c41 17 174 44 241 51 67 6 232 -2 292 -15z m-825 -465 c90 -46
131 -126 118 -230 -9 -78 -50 -135 -122 -170 -54 -27 -68 -29 -195 -32 l-138
-4 0 237 0 238 140 -5 c130 -4 143 -6 197 -34z"/>
<path d="M1691 1066 c-84 -47 -55 -176 40 -176 33 0 78 28 94 60 8 16 15 49
15 73 0 38 -3 46 -22 51 -38 10 -102 6 -127 -8z"/>
<path d="M920 935 l0 -95 41 0 c31 0 47 6 70 29 63 64 15 161 -81 161 l-30 0
0 -95z"/>
</g>
</svg>
