<svg width="1920" height="240" viewBox="0 0 1920 240" xmlns="http://www.w3.org/2000/svg"><rect width="1920" height="240" fill="#2430a0"/><path d="M 0,240 C 0,240 0,48 0,48 C 33.3314002277866,58.64715083812191 66.6628004555732,69.29430167624382 98,63 C 129.3371995444268,56.70569832375618 158.68019840549374,33.46994413314663 190,34 C 221.31980159450626,34.53005586685337 254.6164059224517,58.825921791169634 287,61 C 319.3835940775483,63.174078208830366 350.85417790469944,43.22636870217484 386,40 C 421.14582209530056,36.77363129782516 459.96688245875043,50.26860340013104 494,58 C 528.0331175412496,65.73139659986896 557.2782922602989,67.69921769730101 589,61 C 620.7217077397011,54.300782302698984 654.9199485000536,38.9345258106649 687,40 C 719.0800514999464,41.0654741893351 749.0419137394872,58.56267906003935 775,59 C 800.9580862605128,59.43732093996065 822.9123965419981,42.81475794917769 857,37 C 891.0876034580019,31.18524205082231 937.3085000925214,36.178289143249884 968,43 C 998.6914999074786,49.821710856750116 1013.8536030879159,58.47208547782276 1043,55 C 1072.1463969120841,51.52791452217724 1115.2770875558153,35.93336894545907 1154,37 C 1192.7229124441847,38.06663105454093 1227.0380466888228,55.79443874034094 1252,56 C 1276.9619533111772,56.20556125965906 1292.5707256888932,38.88887609317719 1326,34 C 1359.4292743111068,29.111123906822808 1410.6790505556037,36.6500568869503 1449,37 C 1487.3209494443963,37.3499431130497 1512.713072088692,30.5108963590216 1541,33 C 1569.286927911308,35.4891036409784 1600.468661089629,47.30635767696328 1631,46 C 1661.531338910371,44.69364232303672 1691.4122835527921,30.26367293312527 1723,33 C 1754.5877164472079,35.73632706687473 1787.8822046992022,55.63895059053563 1821,61 C 1854.1177953007978,66.36104940946437 1887.0588976503989,57.180524704732186 1920,48 C 1920,48 1920,240 1920,240 Z" fill="#000000" opacity="0.12"/><path d="M 0,240 C 0,240 0,96 0,96 C 23.690903745167184,88.00366928883562 47.38180749033437,80.00733857767126 82,80 C 116.61819250966563,79.99266142232874 162.16367378382975,87.97431497815059 197,92 C 231.83632621617025,96.02568502184941 255.96349737434673,96.09540150972639 282,98 C 308.03650262565327,99.90459849027361 335.98233671878324,103.64407898294387 368,101 C 400.01766328121676,98.35592101705613 436.10715575052023,89.3282825584981 472,87 C 507.89284424947977,84.6717174415019 543.5890402791357,89.04279078306374 576,92 C 608.4109597208643,94.95720921693626 637.5366831329369,96.500554309247 674,102 C 710.4633168670631,107.499445690753 754.2642271891168,116.95499197994832 784,111 C 813.7357728108832,105.04500802005168 829.4064081105957,83.67947777095968 862,82 C 894.5935918894043,80.32052222904032 944.1101403685003,98.32709693621294 974,105 C 1003.8898596314997,111.67290306378706 1014.153030415403,107.0121344841885 1042,102 C 1069.846969584597,96.9878655158115 1115.277737969888,91.62436512703309 1154,91 C 1192.722262030112,90.37563487296691 1224.7360177050448,94.49040500767917 1252,91 C 1279.2639822949552,87.50959499232083 1301.7781912099335,76.4140148422502 1330,81 C 1358.2218087900665,85.5859851577498 1392.1512174552213,105.85353562332007 1430,110 C 1467.8487825447787,114.14646437667993 1509.6169389691809,102.1718426644695 1538,100 C 1566.3830610308191,97.8281573355305 1581.3810266680546,105.45909371880198 1618,105 C 1654.6189733319454,104.54090628119802 1712.8589543586008,95.99178246032253 1745,94 C 1777.1410456413992,92.00821753967747 1783.1831558975425,96.57377643990785 1808,98 C 1832.8168441024575,99.42622356009215 1876.4084220512286,97.71311178004608 1920,96 C 1920,96 1920,240 1920,240 Z" fill="#000000" opacity="0.24"/><path d="M 0,240 C 0,240 0,144 0,144 C 36.14378650836814,142.51770568773864 72.28757301673627,141.03541137547728 109,145 C 145.71242698326373,148.96458862452272 182.99349444142305,158.37606018582952 209,160 C 235.00650555857695,161.62393981417048 249.73844921757149,155.46034788120465 278,154 C 306.2615507824285,152.53965211879535 348.05270868829115,155.78254828935172 380,149 C 411.94729131170885,142.21745171064828 434.050716029264,125.4094589613884 466,127 C 497.949283970736,128.5905410386116 539.7444271946528,148.5796158650947 573,150 C 606.2555728053472,151.4203841349053 630.971575192125,134.27207757823265 658,132 C 685.028424807875,129.72792242176735 714.3692720368473,142.3320738219746 753,146 C 791.6307279631527,149.6679261780254 839.5513366604861,144.39962713386902 873,141 C 906.4486633395139,137.60037286613098 925.4253813212085,136.06941764254938 952,134 C 978.5746186787915,131.93058235745062 1012.7471380546797,129.3227022959335 1051,129 C 1089.2528619453203,128.6772977040665 1131.5860664600732,130.63977317371658 1169,136 C 1206.4139335399268,141.36022682628342 1238.908596105028,150.11820500920027 1264,156 C 1289.091403894972,161.88179499079973 1306.779549119815,164.8874067894824 1332,160 C 1357.220450880185,155.1125932105176 1389.973207415712,142.33216783287 1422,137 C 1454.026792584288,131.66783216713 1485.3276212173366,133.7839218790376 1522,135 C 1558.6723787826634,136.2160781209624 1600.7163077149407,136.5321446509796 1632,138 C 1663.2836922850593,139.4678553490204 1683.8071479229004,142.08749951704397 1714,145 C 1744.1928520770996,147.91250048295603 1784.0551005934567,151.11785728084456 1820,151 C 1855.9448994065433,150.88214271915544 1887.9724497032716,147.44107135957773 1920,144 C 1920,144 1920,240 1920,240 Z" fill="#000000" opacity="0.36"/><path d="M 0,240 C 0,240 0,192 0,192 C 36.101895825742176,184.34503692871215 72.20379165148435,176.69007385742432 106,182 C 139.79620834851565,187.30992614257568 171.28672921980473,205.5847414990149 203,204 C 234.71327078019527,202.4152585009851 266.6492914692968,180.9709601465161 297,176 C 327.3507085307032,171.0290398534839 356.11610490300797,182.53141791492084 384,188 C 411.88389509699203,193.46858208507916 438.8862889186711,192.90336819380056 474,196 C 509.1137110813289,199.09663180619944 552.3387394223076,205.85510930987684 586,207 C 619.6612605776924,208.14489069012316 643.7587533920985,203.67619456669203 672,199 C 700.2412466079015,194.32380543330797 732.6262470092983,189.44011242335498 760,190 C 787.3737529907017,190.55988757664502 809.7362585707082,196.56335573988807 848,195 C 886.2637414292918,193.43664426011193 940.4287187078695,184.30646461709273 975,180 C 1009.5712812921305,175.69353538290727 1024.5488665978137,176.21078579174107 1053,176 C 1081.4511334021863,175.78921420825893 1123.3758149008765,174.85039221594295 1154,175 C 1184.6241850991235,175.14960778405705 1203.947873798681,176.38764534448723 1237,175 C 1270.052126201319,173.61235465551277 1316.8326899043993,169.59902640610824 1354,175 C 1391.1673100956007,180.40097359389176 1418.7213665837212,195.2162490310798 1449,194 C 1479.2786334162788,192.7837509689202 1512.2818437607154,175.53597746957252 1546,176 C 1579.7181562392846,176.46402253042748 1614.1512583734166,194.63984109063003 1644,203 C 1673.8487416265834,211.36015890936997 1699.1131227456185,209.9046581679073 1730,208 C 1760.8868772543815,206.0953418320927 1797.396250644109,203.74152623774077 1830,201 C 1862.603749355891,198.25847376225923 1891.3018746779455,195.1292368811296 1920,192 C 1920,192 1920,240 1920,240 Z" fill="#000000" opacity="0.48"/></svg>